<svg width="8" height="13" viewBox="0 0 8 13" fill="none" xmlns="http://www.w3.org/2000/svg">
<path d="M3.5 12.1567C3.5 12.4329 3.72386 12.6567 4 12.6567C4.27614 12.6567 4.5 12.4329 4.5 12.1567L3.5 12.1567ZM4.35355 0.489476C4.15829 0.294214 3.84171 0.294214 3.64645 0.489476L0.464466 3.67146C0.269204 3.86672 0.269204 4.1833 0.464466 4.37856C0.659728 4.57383 0.97631 4.57383 1.17157 4.37856L4 1.55014L6.82843 4.37856C7.02369 4.57383 7.34027 4.57383 7.53553 4.37856C7.7308 4.1833 7.7308 3.86672 7.53553 3.67146L4.35355 0.489476ZM4.5 12.1567L4.5 0.84303L3.5 0.84303L3.5 12.1567L4.5 12.1567Z" fill="#C8C3BC"/>
</svg>
