<svg width="11" height="9" viewBox="0 0 11 9" fill="none" xmlns="http://www.w3.org/2000/svg">
<path d="M1 4C0.723858 4 0.5 4.22386 0.5 4.5C0.5 4.77614 0.723858 5 1 5V4ZM9.95588 4.85355C10.1511 4.65829 10.1511 4.34171 9.95588 4.14645L6.7739 0.964466C6.57864 0.769204 6.26205 0.769204 6.06679 0.964466C5.87153 1.15973 5.87153 1.47631 6.06679 1.67157L8.89522 4.5L6.06679 7.32843C5.87153 7.52369 5.87153 7.84027 6.06679 8.03553C6.26205 8.2308 6.57864 8.2308 6.7739 8.03553L9.95588 4.85355ZM1 5H9.60233V4H1V5Z" fill="#121110"/>
</svg>
