<svg width="8" height="13" viewBox="0 0 8 13" fill="none" xmlns="http://www.w3.org/2000/svg">
<path d="M1.81249 12.1094L7.07812 6.85937C7.14062 6.79687 7.18499 6.72917 7.21124 6.65625C7.23749 6.58333 7.25041 6.50521 7.24999 6.42188C7.24999 6.33854 7.23687 6.26042 7.21062 6.1875C7.18437 6.11458 7.1402 6.04688 7.07812 5.98438L1.81249 0.71875C1.66666 0.572917 1.48436 0.5 1.26561 0.5C1.04686 0.5 0.859365 0.578125 0.703115 0.734375C0.546865 0.890625 0.46874 1.07292 0.46874 1.28125C0.46874 1.48958 0.546865 1.67188 0.703115 1.82812L5.29687 6.42188L0.703115 11.0156C0.557282 11.1615 0.484365 11.3412 0.484365 11.555C0.484365 11.7688 0.56249 11.9535 0.71874 12.1094C0.87499 12.2656 1.05728 12.3438 1.26561 12.3438C1.47395 12.3438 1.65624 12.2656 1.81249 12.1094Z" fill="#C5C5C5"/>
</svg>
