<svg width="57" height="59" viewBox="0 0 57 59" fill="none" xmlns="http://www.w3.org/2000/svg">
<mask id="mask0_245_5662" style="mask-type:luminance" maskUnits="userSpaceOnUse" x="0" y="0" width="57" height="60">
<path d="M57 0H0V60H57V0Z" fill="white"/>
</mask>
<g mask="url(#mask0_245_5662)">
<path d="M28.7142 33.0888C28.7142 33.0888 28.7206 33.0807 28.7242 33.0762C28.735 33.0608 28.7477 33.0473 28.7594 33.0338L28.7766 33.0139C28.7883 33.0067 28.8001 32.9986 28.8118 32.9905L28.819 32.986C28.8317 32.9806 28.8452 32.9743 28.8579 32.9679C28.8678 32.9634 28.8769 32.958 28.8868 32.9544C28.8895 32.9535 28.8931 32.9526 28.8958 32.9508C28.979 32.9192 29.0874 32.9012 29.2338 32.8958C29.2898 32.894 29.3458 32.894 29.4028 32.8958C29.3612 32.9337 29.3205 32.9743 29.2799 33.0176C29.0621 33.2466 28.8949 33.4929 28.7341 33.73C28.6953 33.7878 28.6555 33.8455 28.6112 33.9095C28.4269 34.1855 28.2308 34.4822 28.042 34.788C27.685 35.3634 27.3787 35.9018 27.1095 36.4285C27.1393 36.332 27.17 36.2373 27.1998 36.1444C27.3236 35.7819 27.4347 35.4878 27.5504 35.2191C27.8188 34.5823 28.1233 33.9925 28.4513 33.4694C28.5335 33.3413 28.6221 33.206 28.7142 33.087V33.0888ZM27.1158 29.2043L26.6215 29.2359C26.6468 29.2115 26.6721 29.1872 26.6974 29.1619C26.9369 28.9347 27.179 28.6713 27.4384 28.3592C27.6317 28.1257 27.8106 27.8867 27.9805 27.6468C27.9932 27.7063 28.0049 27.7667 28.0176 27.8253L28.0682 28.0742C28.1161 28.3078 28.1603 28.5288 28.1856 28.7471C28.2028 28.9058 28.2091 29.0474 28.2055 29.1773C27.8188 29.1683 27.4474 29.1863 27.1158 29.2025V29.2043ZM23.0614 23.6757C23.0578 23.351 23.0442 23.0263 23.0307 22.7116C23.0225 22.5222 23.0144 22.3337 23.009 22.1452C22.9999 21.8593 22.9981 21.6257 23.0018 21.4065C23.0054 21.1459 23.0207 20.9186 23.0506 20.7103C23.1057 20.2981 23.2466 19.867 23.4689 19.426C23.5331 19.297 23.5846 19.2005 23.6343 19.113C23.6361 19.1103 23.6379 19.1067 23.6397 19.104C23.6957 19.0012 23.7463 18.9218 23.8005 18.8523C23.9153 18.7053 24.0535 18.5944 24.2062 18.5286C24.3544 18.4618 24.5315 18.4321 24.7357 18.4402C24.9436 18.4465 25.1523 18.4817 25.3601 18.5448C25.5643 18.6061 25.7604 18.6927 25.9375 18.7964C26.0243 18.8496 26.1146 18.9056 26.1724 18.9579C26.2303 19.0093 26.2845 19.0733 26.336 19.1509C26.4336 19.2943 26.5158 19.4701 26.5935 19.7055C26.6396 19.8435 26.6784 19.9851 26.7128 20.1312C26.5529 20.2954 26.402 20.4595 26.2619 20.6165C26.186 20.7003 26.111 20.7851 26.0351 20.8699C25.886 21.0376 25.7315 21.2108 25.577 21.3759C25.3411 21.6293 25.0872 21.8728 24.8668 22.082C24.2659 22.6575 23.6695 23.2536 23.0641 23.8867C23.0641 23.8173 23.0641 23.7469 23.0632 23.6757H23.0614ZM56.9468 25.8628C56.8419 24.1609 56.5853 22.4681 56.1841 20.832C55.7848 19.1924 55.2137 17.5753 54.4863 16.0249C53.0722 12.9909 50.9515 10.1914 48.3519 7.93037C47.0841 6.82735 45.6872 5.83165 44.1999 4.97124C42.7541 4.13608 41.2 3.41547 39.5798 2.83104C38.0085 2.26465 36.3559 1.82181 34.668 1.51427C33.0298 1.21664 31.3292 1.04618 29.6124 1.0074C26.1752 0.934348 22.8012 1.40243 19.5799 2.39632C16.2357 3.4308 13.2006 4.98116 10.5594 7.00232C7.87302 9.04692 5.54628 11.666 3.83128 14.5774C2.97919 16.0204 2.25 17.5671 1.66357 19.1761C1.07805 20.7833 0.642522 22.4374 0.369639 24.0924C-0.18697 27.4402 -0.115587 30.8467 0.583788 34.2153C1.2669 37.5234 2.52469 40.6891 4.32373 43.6239C6.1056 46.537 8.35282 49.1011 11.0012 51.244C13.6894 53.4203 16.6803 55.0644 19.8898 56.1287C21.5126 56.6689 23.1852 57.0504 24.8622 57.2624C24.8912 57.266 24.921 57.2687 24.9499 57.2723C24.9607 58.1381 24.9824 59.0833 25.0321 60.0438C25.0448 60.2828 25.2417 60.4704 25.4821 60.4713C25.7216 60.4713 25.9203 60.2846 25.9339 60.0465C25.9872 59.1248 26.0143 58.2184 26.0306 57.3814C26.6947 57.4337 27.3607 57.4599 28.0266 57.4599C28.6925 57.4599 29.3142 57.4355 29.9539 57.3868C30.1979 57.3679 30.3831 57.1586 30.3705 56.9142C30.3578 56.6698 30.1563 56.4813 29.9079 56.4867C28.6058 56.5201 27.3119 56.4687 26.0459 56.3352C26.0459 56.3325 26.0459 56.3289 26.0459 56.3262L26.0712 53.551C26.073 53.266 26.0749 52.9973 26.1327 52.77C26.1381 52.7484 26.1444 52.7267 26.1508 52.7069C26.195 52.7294 26.2402 52.7511 26.2845 52.7736C26.9188 53.0857 27.545 53.3887 28.145 53.6764C28.7368 53.9596 29.3729 54.2635 30.0172 54.5603L31.0717 55.0455C31.0925 55.0554 31.1196 55.0662 31.1458 55.0762L31.1629 55.0834C31.1684 55.0852 31.1747 55.0879 31.1801 55.0897C31.2054 55.0987 31.2307 55.1059 31.256 55.114L31.2732 55.1194C31.2795 55.1213 31.2849 55.1231 31.2913 55.1249C31.4277 55.16 31.5714 55.1754 31.7241 55.17C31.8596 55.1627 32.0385 55.1402 32.2274 55.0338C32.3747 54.9535 32.4966 54.8191 32.5608 54.6685C32.6295 54.5143 32.6394 54.3429 32.5924 54.1643L32.5897 54.1526C32.5481 53.993 32.4397 53.8604 32.2843 53.7846L30.6172 52.9738L27.4881 51.4704C27.4076 51.4316 27.3128 51.3865 27.2143 51.3531C26.8501 51.2251 26.4589 51.2115 26.111 51.308C25.7342 51.1195 25.361 50.9319 24.996 50.7462C24.3842 50.435 23.768 50.1184 23.168 49.8073C23.0578 49.7496 22.9466 49.6918 22.8364 49.635C22.3313 49.3726 21.8542 49.1245 21.3934 48.8422C21.0961 48.661 20.8359 48.4833 20.5964 48.2993C20.3696 48.1243 20.1356 47.9178 19.8835 47.6671C19.6287 47.4145 19.3883 47.1503 19.1335 46.8698C18.9239 46.6398 18.707 46.4017 18.482 46.1699C18.1893 45.8696 17.9326 45.6324 17.6742 45.4231C17.6715 45.4213 17.6688 45.4186 17.6661 45.4168L17.5983 45.3636C17.5495 45.3248 17.4998 45.2861 17.4492 45.2491C17.4465 45.2473 17.4438 45.2455 17.4411 45.2437L17.2242 45.0913C17.2179 45.0867 17.2107 45.0822 17.2043 45.0777L17.1709 45.057C17.0263 44.9659 16.8763 44.8721 16.7218 44.7927C16.6622 44.7612 16.6017 44.7296 16.542 44.6989C16.3098 44.5781 16.0911 44.4644 15.9222 44.3337C15.7252 44.1758 15.5716 43.9756 15.4767 43.7519C15.3809 43.531 15.3249 43.2622 15.3095 42.9538C15.296 42.6814 15.314 42.382 15.3637 42.0392C15.4053 41.7551 15.4686 41.444 15.5571 41.0913L15.8146 40.0984C16.5258 37.4017 17.3101 34.7564 18.145 32.2383C18.3338 31.68 18.5706 31.0253 18.8904 30.4039C19.044 30.1053 19.2103 29.8302 19.3865 29.5822C19.523 29.3865 19.6838 29.1998 19.8546 29.0023C19.9061 28.9428 19.9576 28.8823 20.0073 28.8237L21.3455 27.2607C21.7485 26.7936 22.1795 26.3065 22.7036 25.7275C23.6758 24.6552 24.6047 23.6928 25.5417 22.7882C25.8255 22.5168 26.0622 22.2859 26.2908 22.0378C26.4516 21.8638 26.6089 21.6861 26.7607 21.5138C26.8348 21.43 26.908 21.347 26.9839 21.2622C27.47 20.713 27.8965 20.2846 28.4025 19.977C28.641 19.8282 28.9139 19.7146 29.213 19.6397C29.2184 19.6379 29.2239 19.637 29.2293 19.6352C29.4208 19.5802 29.7 19.5324 29.9431 19.6199C30.0515 19.6604 30.1419 19.7137 30.2115 19.7777C30.2774 19.8435 30.3326 19.931 30.3786 20.041C30.4184 20.1348 30.4446 20.2512 30.46 20.3982C30.4735 20.52 30.4717 20.6561 30.4554 20.8059C30.441 20.9466 30.4157 21.0827 30.375 21.227L30.3452 21.3398L30.3072 21.4588C30.291 21.5147 30.2684 21.5752 30.2458 21.6383L30.2341 21.6699C30.131 21.9504 30.0009 22.2327 29.8374 22.5339C29.5618 23.0444 29.2401 23.5251 28.8995 24.0337L28.7702 24.2277C28.4874 24.647 28.2227 25.0809 27.967 25.4993C27.5043 26.2551 27.0679 26.9694 26.5348 27.6152C26.3107 27.8867 26.0974 28.1193 25.8833 28.325C25.8806 28.3277 25.877 28.3304 25.8743 28.3331C25.7938 28.4152 25.7062 28.4936 25.6122 28.5775L25.5255 28.656C25.3972 28.7687 25.2607 28.8905 25.1306 29.0104C24.9165 29.2079 24.705 29.4109 24.5008 29.6066L24.0074 30.0756L23.9559 30.1234C23.8448 30.2262 23.7183 30.3434 23.6054 30.4706C23.3758 30.724 23.1635 31.0171 22.9367 31.395C22.793 31.634 22.6611 31.8767 22.5337 32.1111L21.4358 34.1206C21.3238 34.3244 21.2127 34.5282 21.1015 34.733C20.8883 35.1244 20.6678 35.5284 20.4464 35.9226C20.272 36.2346 20.1031 36.5413 19.9494 36.8668C19.7624 37.2637 19.6386 37.6037 19.5591 37.9347C19.4552 38.3577 19.4398 38.7888 19.5139 39.1838L19.5392 39.3146C19.5401 39.3191 19.541 39.3245 19.5419 39.329C19.5763 39.4796 19.6585 39.6176 19.766 39.7123C19.9883 39.9144 20.319 39.964 20.5901 39.8368C20.7356 39.771 20.835 39.6582 20.8792 39.6005L20.9 39.5743C20.9217 39.5473 20.9443 39.5202 20.966 39.4932C21.031 39.4084 21.0871 39.329 21.1377 39.2515C21.5081 38.6851 21.7593 37.9897 21.9039 37.1302C22.1199 35.9045 22.4876 34.7257 22.999 33.62L23.4219 32.8642C23.4635 32.7903 23.5041 32.7172 23.5457 32.6433C23.834 32.1274 24.1059 31.6404 24.4665 31.2444C24.5478 31.1542 24.6391 31.0713 24.7439 30.9748L25.3032 30.4498C25.3493 30.4057 25.3963 30.3615 25.4432 30.3173C25.6005 30.2866 25.7749 30.2758 25.9556 30.2641C26.0243 30.2595 26.0938 30.255 26.158 30.2505L27.1799 30.1793C27.8432 30.1432 28.4892 30.1216 29.0983 30.255C29.4398 30.3335 29.7 30.43 29.9178 30.5599C29.9214 30.5617 29.925 30.5644 29.9286 30.5662C29.9449 30.5752 29.9612 30.5842 29.9774 30.5923C29.9901 30.5987 30.0036 30.6059 30.0154 30.6131L30.1003 30.6717C30.1283 30.6925 30.1573 30.7114 30.1862 30.7312C30.2214 30.7547 30.2539 30.7772 30.2792 30.7971C30.3136 30.8268 30.3479 30.8566 30.3822 30.8855C30.4663 30.9567 30.5458 31.0244 30.6045 31.0929C30.6081 31.0974 30.6118 31.101 30.6154 31.1055C30.6371 31.129 30.6596 31.1524 30.6813 31.1759C30.7121 31.2083 30.7428 31.2399 30.7726 31.2733L30.956 31.5078C30.9886 31.5493 31.0202 31.5889 31.0401 31.6205C31.0699 31.6719 31.0916 31.7188 31.1069 31.7639C31.1593 31.9127 31.1548 32.0805 31.0979 32.2176C31.0509 32.2031 31.0048 32.1896 30.9587 32.177C30.9334 32.1698 30.909 32.1635 30.8801 32.1544C30.5476 32.0606 30.1871 31.9659 29.8121 31.9127C29.6006 31.8812 29.4055 31.8667 29.2112 31.8703C29.044 31.8739 28.7937 31.8893 28.548 31.9777C28.4983 31.9939 28.4567 32.0128 28.4233 32.0282L28.3935 32.0417C28.3284 32.0688 28.2778 32.1012 28.2444 32.1229C28.2371 32.1274 28.2299 32.1328 28.2227 32.1364C28.2182 32.1391 28.2127 32.1418 28.2082 32.1454L28.1784 32.1635C28.1576 32.1761 28.1386 32.1905 28.1206 32.2067L28.0926 32.2311C28.0926 32.2311 28.0844 32.2383 28.0826 32.2401C28.0609 32.2591 28.0293 32.2879 27.9986 32.324L27.985 32.3393C27.9579 32.3691 27.9281 32.4025 27.8974 32.4421C27.7709 32.5991 27.6625 32.7578 27.5694 32.8985C27.198 33.4658 26.8565 34.1007 26.5528 34.7835C26.3965 35.1307 26.2664 35.4842 26.158 35.7891C26.0758 36.0317 26.0008 36.2743 25.9285 36.5088C25.9005 36.6008 25.8725 36.6919 25.8435 36.7848C25.6267 37.4828 25.417 38.1746 25.2408 38.7617L25.1821 38.9602C25.0068 39.5518 24.8261 40.1633 24.6915 40.7955C24.6481 41.0111 24.6201 41.1851 24.6011 41.3628C24.5866 41.5188 24.6228 41.6794 24.7014 41.812C24.7782 41.9427 24.8912 42.0464 25.0294 42.1132C25.1667 42.1799 25.3195 42.2034 25.4658 42.1826C25.6149 42.1628 25.7604 42.0942 25.8752 41.9905C26.0378 41.8417 26.1706 41.6604 26.2944 41.4178C26.3739 41.2591 26.4426 41.0886 26.5185 40.8568C26.6965 40.2778 26.9125 39.5978 27.1637 38.9349C27.4049 38.2946 27.6706 37.6731 27.9561 37.0869C28.229 36.5214 28.5453 35.946 28.9239 35.3246C29.1028 35.0288 29.2907 34.7393 29.4624 34.4777C29.5031 34.4182 29.5428 34.3587 29.5817 34.2991C29.7262 34.0818 29.8627 33.8771 30.0208 33.7075C30.1139 33.6074 30.206 33.5325 30.2937 33.4838C30.3768 33.4378 30.4627 33.4153 30.5485 33.4144C30.5521 33.4144 30.5548 33.4144 30.5584 33.4144C30.5982 33.4135 30.6389 33.4144 30.6795 33.4144C30.8196 33.4171 30.9949 33.4207 31.1792 33.3729C31.1946 33.3693 31.2099 33.3648 31.2253 33.3603C31.2867 33.3945 31.3455 33.4306 31.4024 33.4703C31.6337 33.6245 31.8524 33.8238 32.0503 34.0647C32.053 34.0674 32.0548 34.0701 32.0575 34.0728C32.0828 34.1025 32.1108 34.1395 32.1397 34.1792C32.1542 34.1981 32.1677 34.2171 32.1822 34.236C32.1957 34.2577 32.2102 34.2793 32.2247 34.3C32.25 34.3379 32.2744 34.374 32.2897 34.4038C32.2942 34.411 32.2978 34.4191 32.3024 34.4254C32.3647 34.5273 32.4198 34.6473 32.4713 34.7907C32.5509 35.0414 32.5987 35.3354 32.615 35.6637C32.6277 35.9568 32.6132 36.2743 32.5725 36.608C32.5445 36.8443 32.503 37.0995 32.4424 37.399C32.2391 37.5649 32.0503 37.7787 31.8705 38.0438C31.8686 38.0465 31.8668 38.0501 31.865 38.0528C31.4765 38.6571 31.1295 39.3227 30.8322 40.0307C30.2548 41.407 29.9006 42.8564 29.7796 44.3382V44.3418C29.7588 44.5691 29.8735 44.7873 30.0732 44.8982C30.3515 45.0525 30.703 44.9524 30.8593 44.6728C31.5434 43.448 32.1244 42.1556 32.5861 40.8316C32.8156 40.1696 33.018 39.4905 33.1861 38.8177C33.215 38.7058 33.2412 38.5922 33.2674 38.4794C33.281 38.4217 33.2936 38.364 33.3081 38.3063C33.3081 38.3027 33.3099 38.3 33.3099 38.2964L33.3749 37.9969C33.4544 37.9645 33.5466 37.9392 33.6496 37.9221C33.7815 37.8995 33.9189 37.8941 34.0653 37.9067C34.3336 37.9257 34.6273 38.0014 34.9381 38.1331C35.2083 38.2477 35.4821 38.4082 35.7477 38.6093C36.1254 38.897 36.6215 39.3768 36.8429 40.028C36.9332 40.2886 36.9658 40.5637 36.936 40.8307C36.9107 41.0958 36.8004 41.3799 36.6839 41.6803L36.6775 41.6956C36.6567 41.7488 36.636 41.8011 36.6143 41.8543C36.4959 42.1484 36.3739 42.4532 36.3025 42.8022C36.1968 43.2658 36.2393 43.779 36.4173 44.2056C36.6052 44.6692 36.9116 45.0326 37.1257 45.2653C37.3001 45.4547 37.4808 45.6279 37.6552 45.7956C37.7401 45.8768 37.8242 45.958 37.91 46.0428C38.1684 46.2935 38.4115 46.546 38.6329 46.7922C38.8669 47.0502 39.0811 47.3153 39.2735 47.5868C39.354 47.6959 39.428 47.8132 39.5076 47.9367L39.5916 48.0756C39.6612 48.1965 39.728 48.3101 39.7841 48.4292C39.944 48.7548 40.0515 49.0479 40.113 49.323C40.1157 49.3329 40.1175 49.3428 40.1211 49.3527C40.1319 49.3897 40.141 49.4393 40.1491 49.4925C40.1536 49.5169 40.1572 49.5403 40.16 49.5574L40.1816 49.6882C40.1834 49.7018 40.1843 49.7162 40.1853 49.7297C40.1862 49.7468 40.188 49.764 40.1889 49.7811C40.1907 49.8136 40.1943 49.8461 40.197 49.8776C40.2015 49.9254 40.2051 49.9705 40.206 50.0093C40.206 50.0418 40.206 50.0733 40.206 50.1049C40.206 50.1518 40.2069 50.1987 40.2042 50.2528C40.1925 50.5468 40.1446 50.8571 40.0578 51.2025C39.9404 51.6688 39.7732 52.1215 39.5952 52.6014C39.5238 52.7953 39.4515 52.9892 39.3847 53.1795C39.1208 53.9028 38.9419 54.646 38.8534 55.3882C38.8055 55.7932 38.7775 56.1593 38.7666 56.5075C38.7558 56.8673 38.7594 57.2425 38.7766 57.624C38.8154 58.3699 38.894 59.1058 39.0097 59.812C39.0476 60.042 39.2555 60.2062 39.4877 60.189C39.7208 60.1728 39.9024 59.9825 39.9078 59.7489C39.9178 59.3016 39.9169 58.8515 39.9169 58.4159C39.916 57.4166 39.9142 56.4723 40.0262 55.5298C40.0678 55.2006 40.1256 54.8642 40.1979 54.5305C40.2756 54.1842 40.3813 53.8406 40.4735 53.552C40.525 53.3941 40.5783 53.2354 40.6316 53.0767C40.8069 52.5545 40.9885 52.0142 41.1123 51.4496C41.2045 51.0284 41.2497 50.6451 41.2524 50.2817C41.2578 49.9137 41.209 49.5241 41.1033 49.0912C41.0193 48.7466 40.8846 48.3958 40.6822 47.9936C40.6099 47.8429 40.5295 47.7059 40.4518 47.5724L40.4039 47.4903C40.4003 47.484 40.3967 47.4777 40.3922 47.4714L40.347 47.401C40.2621 47.2693 40.1744 47.134 40.0804 47.0069C39.6557 46.4116 39.1741 45.8642 38.6781 45.3104C38.6094 45.2329 38.5398 45.1571 38.4702 45.0804C38.2986 44.891 38.1359 44.7125 37.9877 44.5285C37.76 44.2435 37.6164 44.0063 37.5368 43.7817C37.4953 43.6644 37.4718 43.549 37.4673 43.4381C37.4673 43.4345 37.4673 43.43 37.4673 43.4263C37.46 43.3172 37.4718 43.1973 37.5025 43.0575C37.5567 42.8004 37.6624 42.5317 37.7736 42.2467L37.8151 42.1402C37.8974 41.9301 37.9588 41.7533 38.0076 41.5856C38.0736 41.3628 38.116 41.1445 38.1314 40.9443C38.1703 40.515 38.1025 40.0605 37.9362 39.6285C37.788 39.2479 37.5676 38.8862 37.2802 38.5534C37.0236 38.2549 36.7218 37.9834 36.3784 37.7444C35.6411 37.2375 34.8866 36.9543 34.1366 36.902C33.946 36.8885 33.7562 36.8948 33.571 36.921C33.58 36.8551 33.5882 36.7911 33.5954 36.7271C33.6948 35.8369 33.6451 35.1217 33.4382 34.475C33.4364 34.4696 33.4346 34.4651 33.4328 34.4597C33.3578 34.2513 33.2737 34.071 33.1752 33.9104C33.1382 33.8437 33.0984 33.786 33.0641 33.7346C33.0496 33.7138 33.0361 33.6931 33.0225 33.6723C33.0162 33.6615 33.009 33.6516 33.0008 33.6417C32.9855 33.6218 32.971 33.602 32.9557 33.5821C32.9177 33.5316 32.8761 33.4748 32.8264 33.418C32.578 33.1204 32.2951 32.8624 31.9888 32.6532C32.1623 32.2798 32.1831 31.8397 32.0403 31.4374C32.0033 31.331 31.9536 31.2264 31.8894 31.1173C31.8876 31.1145 31.8867 31.1118 31.8849 31.1091C31.8343 31.0262 31.781 30.9585 31.7331 30.899L31.5388 30.6519C31.5334 30.6447 31.528 30.6383 31.5226 30.632C31.4819 30.586 31.4385 30.5409 31.3961 30.4958C31.3762 30.4751 31.3563 30.4544 31.3373 30.4336C30.8033 29.8591 30.0823 29.4551 29.3133 29.2972C29.3007 29.2945 29.2889 29.2927 29.2763 29.29C29.2374 29.097 29.2013 28.9049 29.1669 28.7173L28.9916 27.7342C28.9464 27.4673 28.9013 27.1805 28.8796 26.8964C28.8624 26.6637 28.8624 26.4571 28.8796 26.2668L28.8886 26.2524C29.1696 25.7961 29.4606 25.3244 29.7543 24.8734C30.1672 24.2484 30.5341 23.6802 30.8467 23.048C31.0265 22.6845 31.1648 22.3481 31.2696 22.0162L31.2804 21.9819C31.3048 21.9053 31.3292 21.8259 31.3491 21.7474L31.3825 21.6212C31.3843 21.6149 31.3861 21.6085 31.387 21.6022L31.4141 21.4796C31.4602 21.2812 31.4891 21.08 31.5 20.8861C31.5135 20.6724 31.5063 20.4631 31.4783 20.2683C31.444 20.0239 31.3861 19.8156 31.3021 19.6361C31.2018 19.4133 31.0654 19.2203 30.8964 19.0607C30.8937 19.058 30.891 19.0553 30.8883 19.0535C30.7175 18.9001 30.5115 18.7811 30.2684 18.6972C29.879 18.5701 29.4308 18.5737 28.9727 18.708C28.5832 18.8109 28.2236 18.9624 27.9064 19.1563C27.798 19.2221 27.6941 19.2925 27.5929 19.3655C27.5097 19.0724 27.3841 18.7991 27.2152 18.5502C27.1113 18.4005 26.9956 18.2715 26.8682 18.1633C26.7354 18.0524 26.6016 17.9775 26.4833 17.9108L26.4616 17.8981C26.2005 17.7574 25.9221 17.6492 25.6339 17.5771C25.3439 17.5049 25.0511 17.467 24.771 17.4643C24.4303 17.4562 24.1105 17.5139 23.8249 17.6357C23.5276 17.7601 23.2548 17.9712 23.0379 18.2427C22.9493 18.3536 22.8653 18.4799 22.7858 18.6233C22.7316 18.718 22.6602 18.8433 22.5933 18.9696C22.3069 19.5035 22.1199 20.0383 22.0385 20.556C21.9464 21.108 21.95 21.6572 21.9626 22.1704C21.9708 22.5492 21.9879 22.9298 22.0051 23.2969C22.0322 23.875 22.0548 24.4252 22.0467 24.9798C22.0232 25.0051 21.9997 25.0303 21.9762 25.0565C21.2316 25.8673 20.4988 26.7097 19.7904 27.5232C19.607 27.7342 19.4236 27.9444 19.2374 28.1572C19.1877 28.2149 19.1371 28.2727 19.0865 28.3304C18.9067 28.536 18.7206 28.748 18.5534 28.9825C18.3492 29.2648 18.154 29.5804 17.9751 29.9213C17.6182 30.5996 17.3589 31.2976 17.151 31.8938C16.2728 34.4678 15.4568 37.1284 14.724 39.8016L14.4547 40.8009C14.3508 41.1996 14.2785 41.5378 14.227 41.8643C14.162 42.2809 14.1376 42.6525 14.1511 43.0007C14.1683 43.4453 14.2532 43.852 14.405 44.2101L14.4593 44.3355C14.4656 44.3508 14.4728 44.3652 14.4809 44.3788L14.5487 44.4987C14.5487 44.4987 14.5523 44.505 14.5541 44.5086C14.5596 44.5176 14.565 44.5267 14.5695 44.5366C14.5876 44.5691 14.612 44.6141 14.6472 44.6619L14.7231 44.7657C14.7845 44.8559 14.8532 44.928 14.9083 44.9857L14.94 45.0191C15.0213 45.1093 15.1089 45.1832 15.1975 45.2545C15.4595 45.4592 15.7405 45.6071 15.989 45.7388C16.0487 45.7704 16.1074 45.801 16.1725 45.8362C16.6387 46.0797 17.0869 46.4387 17.6272 47.0006C17.8341 47.2152 18.032 47.4362 18.2417 47.6689C18.4938 47.9503 18.7549 48.2407 19.0332 48.5203C19.3205 48.8089 19.5898 49.0506 19.8573 49.258C20.1311 49.4718 20.4265 49.6756 20.7591 49.8812C21.3401 50.2411 21.9428 50.554 22.5256 50.8562L22.6051 50.8977C23.2186 51.216 23.8376 51.5344 24.4439 51.842C24.668 51.9556 24.8948 52.0701 25.1225 52.1847C25.0827 52.2794 25.0502 52.3804 25.0231 52.4895C24.9363 52.8512 24.9381 53.2011 24.939 53.5096L24.9481 56.1936C23.356 55.9636 21.7738 55.5902 20.2449 55.0834C17.1619 54.0597 14.2876 52.4787 11.7042 50.3854C9.16966 48.3336 7.00467 45.8651 5.26979 43.0476C3.53219 40.2237 2.31416 37.1771 1.65092 33.9925C0.973234 30.7601 0.89914 27.4862 1.43045 24.2628C1.69068 22.6719 2.10723 21.0809 2.66746 19.5342C3.22858 17.9856 3.92796 16.4966 4.74571 15.1077C6.39023 12.31 8.62119 9.79188 11.1982 7.82394C13.7617 5.85691 16.6866 4.36336 19.8925 3.3839C26.2077 1.45114 33.0695 1.61889 39.213 3.8565C40.7635 4.42379 42.2563 5.12186 43.6469 5.93086C45.0691 6.76151 46.4046 7.71932 47.6136 8.77905C50.0768 10.9391 52.0945 13.6123 53.4481 16.511C54.142 17.9937 54.6878 19.5387 55.0691 21.1053C55.454 22.6764 55.6998 24.3007 55.8001 25.9331C55.8995 27.5539 55.8679 29.2007 55.7052 30.8259C55.5408 32.4448 55.2498 34.0692 54.8432 35.652C54.4339 37.2276 53.9062 38.7933 53.2746 40.304C52.6276 41.8381 51.8767 43.31 51.0427 44.6782C50.6181 45.3744 50.1599 46.0635 49.6828 46.7264C49.185 47.42 48.6771 48.072 48.1729 48.6646C47.1049 49.9218 45.9348 51.0889 44.6941 52.1342C44.5044 52.2938 44.4791 52.5761 44.6372 52.7664C44.7953 52.9567 45.0773 52.9847 45.2697 52.8295C47.8513 50.7398 50.0913 48.1802 51.9283 45.2229C52.802 43.8178 53.5909 42.3062 54.2731 40.7288C54.9282 39.2109 55.483 37.5974 55.923 35.9325C56.3513 34.2955 56.6576 32.6171 56.8356 30.9414C57.0118 29.2368 57.0516 27.5277 56.9522 25.8619L56.9468 25.8628Z" fill="#070707"/>
<path d="M29.1271 10.4187C28.9428 10.1562 28.7033 9.92807 28.4142 9.73957L28.4061 9.73416C28.2877 9.6575 28.1404 9.63315 28.0031 9.66562C27.7311 9.73236 27.5621 10.0029 27.6208 10.2744C27.6226 10.2843 27.6245 10.3123 27.6217 10.3502C27.619 10.388 27.6127 10.4322 27.6019 10.48C27.6019 10.4836 27.6001 10.4863 27.6001 10.49C27.582 10.5747 27.5386 10.6676 27.4989 10.7416C27.4871 10.7605 27.4745 10.7795 27.4627 10.7993C27.4464 10.8255 27.4302 10.8534 27.4184 10.8678L27.348 10.9571C27.3317 10.9788 27.3254 10.9851 27.3181 10.9914C27.2974 11.0121 27.2766 11.0338 27.2558 11.0554C27.2314 11.0816 27.2079 11.1068 27.1952 11.1177L27.048 11.2421C27.0236 11.2593 26.9992 11.2773 26.9748 11.2944C26.898 11.3495 26.8257 11.4018 26.7579 11.4378C26.7552 11.4396 26.7525 11.4406 26.7498 11.4424C26.7245 11.4568 26.7001 11.4712 26.6748 11.4856C26.645 11.5028 26.616 11.5208 26.5871 11.5343L26.3883 11.629C26.3522 11.6471 26.3143 11.6642 26.2772 11.6823C26.1832 11.7255 26.0775 11.7752 25.9727 11.8392C25.9031 11.8798 25.8399 11.9231 25.7847 11.9618L25.7658 11.9754C25.7567 11.9817 25.7477 11.988 25.7387 11.9952L25.698 12.0268C25.6537 12.0611 25.5986 12.1043 25.5444 12.1576C25.2824 12.3984 25.0745 12.6978 24.9426 13.0252C24.8125 13.3472 24.7447 13.6899 24.7411 14.0362C24.7411 14.0389 24.7411 14.0407 24.7411 14.0434C24.6137 13.9063 24.5026 13.7711 24.405 13.634C24.2595 13.4283 24.1384 13.2146 24.0453 12.999C23.9478 12.7736 23.88 12.5445 23.8429 12.3181L23.8285 12.2297L23.8104 12.0529L23.8068 11.9646C23.8068 11.9646 23.8068 11.9555 23.8068 11.951C23.8023 11.8807 23.805 11.7995 23.8068 11.7138C23.8077 11.6696 23.8095 11.6263 23.8104 11.5821C23.8384 11.0636 23.9568 10.5892 24.1637 10.1707C24.3688 9.7531 24.6742 9.35717 25.0727 8.991C25.3519 8.73035 25.6537 8.49405 25.9736 8.24423C26.0992 8.14592 26.2248 8.04761 26.3486 7.9484C26.6215 7.73014 26.8383 7.53263 27.0308 7.32609C27.2865 7.05282 27.4745 6.75068 27.5892 6.42871C27.6217 6.34753 27.6389 6.27087 27.6534 6.20954C27.657 6.19331 27.6606 6.17708 27.6651 6.15994C27.666 6.15543 27.6669 6.15182 27.6678 6.14731C27.6805 6.08959 27.6895 6.03277 27.6985 5.97685C27.7022 5.95431 27.7058 5.93176 27.7094 5.90921C27.7112 5.90109 27.7121 5.89388 27.713 5.88576C27.7229 5.80369 27.7302 5.72072 27.7356 5.64045C27.7356 5.63323 27.7356 5.62602 27.7356 5.6179V5.5701C27.7374 5.53943 27.7383 5.50606 27.7383 5.47179C27.9046 5.5232 28.069 5.58994 28.2308 5.67111C28.2362 5.67382 28.2416 5.67652 28.2479 5.67923C28.3166 5.71079 28.3907 5.75589 28.4693 5.80459C28.5 5.82353 28.5307 5.84247 28.5615 5.86051L28.7124 5.97144C28.7259 5.98227 28.7404 5.99219 28.7539 6.00211C28.7612 6.00752 28.7693 6.01293 28.7729 6.01564L28.8515 6.08508C28.8732 6.10492 28.8958 6.12386 28.9175 6.14371C28.9437 6.16716 28.9708 6.1906 28.9961 6.21405L29.2003 6.43412C29.2075 6.44314 29.2148 6.45306 29.222 6.46298L29.3801 6.67132L29.5211 6.89048C29.5419 6.92295 29.5617 6.95541 29.5816 6.98788L29.7217 7.26206C29.7271 7.27288 29.7307 7.28461 29.7352 7.29633C29.7416 7.31166 29.747 7.32609 29.7515 7.33601L29.8292 7.52812C29.8419 7.5651 29.8527 7.60207 29.8644 7.63995L29.8997 7.75359C29.9042 7.76893 29.9096 7.78426 29.9141 7.79959L29.934 7.89068C29.9403 7.91954 29.9467 7.9484 29.953 7.97726C29.9611 8.01334 29.9693 8.04761 29.9729 8.07196C29.9729 8.07918 29.9747 8.08639 29.9765 8.09271C30.019 8.33171 30.0316 8.59326 30.0144 8.87195C30.0081 8.98108 29.9928 9.10283 29.9656 9.25435C29.9349 9.40316 29.9042 9.5159 29.8708 9.60519C29.8708 9.60699 29.8681 9.61331 29.8672 9.61511C29.812 9.76302 29.8274 9.92626 29.9105 10.0634C30.0578 10.3042 30.3723 10.3826 30.6153 10.2392C30.6307 10.2302 30.6451 10.2212 30.6587 10.2104C30.7301 10.1562 30.7924 10.1003 30.8584 10.0291C30.909 9.97677 30.9578 9.91815 31.0111 9.8478C31.0445 9.8027 31.0762 9.75671 31.1069 9.70891C31.1096 9.71432 31.1123 9.71973 31.115 9.72424C31.2614 10.0119 31.3834 10.3141 31.4791 10.6225C31.5776 10.9418 31.6436 11.2566 31.6752 11.5614C31.7078 11.8626 31.6978 12.1711 31.6454 12.4786C31.5939 12.7754 31.4999 13.0631 31.3644 13.3336L31.2478 13.5438C31.2234 13.5817 31.1981 13.6195 31.1719 13.6565C31.153 13.6836 31.134 13.7115 31.1159 13.7386C31.1132 13.7422 31.1114 13.7458 31.1087 13.7494C31.0843 13.7882 31.0463 13.8342 31.0057 13.882L30.9036 14.0046L30.8412 14.0714C30.8412 14.0714 30.8367 14.0759 30.834 14.0786C30.7789 14.1354 30.7219 14.1904 30.6632 14.2446C30.6894 14.103 30.7057 13.9758 30.7138 13.8549C30.7292 13.6385 30.7274 13.4473 30.7075 13.2705C30.7003 13.1857 30.6867 13.1064 30.675 13.036L30.6677 12.99C30.6659 12.981 30.665 12.9729 30.6623 12.9639C30.6442 12.8836 30.6216 12.7835 30.5891 12.6816C30.4762 12.3055 30.2747 11.9474 30.0054 11.6444L29.9927 11.6299C29.8879 11.5136 29.7334 11.4505 29.5762 11.4613C29.5654 11.4081 29.5527 11.3558 29.5392 11.3035C29.4524 10.9743 29.3133 10.6739 29.128 10.4151L29.1271 10.4187ZM29.2852 14.5557C29.2021 14.82 29.0973 15.0896 28.9735 15.3557L28.9699 15.3629C28.8822 15.5289 28.885 15.7246 28.978 15.8878C29.1271 16.1494 29.4614 16.2404 29.7235 16.0925C30.4888 15.6587 31.0608 15.2276 31.5225 14.7361C31.5252 14.7334 31.527 14.7307 31.5297 14.728C31.8388 14.3825 32.0547 14.0768 32.2083 13.7692C32.3882 13.4121 32.5138 13.0333 32.5815 12.6419C32.7053 11.9285 32.6484 11.1556 32.4117 10.3456C32.4117 10.3447 32.4117 10.3438 32.4117 10.3429C32.193 9.6124 31.8758 8.92696 31.4692 8.30555C31.4611 8.29383 31.4529 8.2812 31.4439 8.27038C31.4394 8.26497 31.4349 8.25956 31.4304 8.25415L31.4222 8.24513C31.3373 8.14953 31.2207 8.0882 31.0942 8.07377C31.0897 8.02687 31.0843 7.97997 31.078 7.93397C31.0716 7.86543 31.0599 7.805 31.049 7.75089C31.0445 7.72834 31.04 7.70579 31.0364 7.68325C31.0364 7.68054 31.0355 7.67693 31.0346 7.67423L31.0138 7.55878C31.0129 7.55067 31.0111 7.54345 31.0093 7.53533C31.0021 7.50647 30.9948 7.47761 30.9867 7.44875L30.956 7.33241C30.9415 7.27829 30.9271 7.22508 30.9117 7.17187C30.909 7.16375 30.9072 7.15564 30.9036 7.14842L30.8114 6.89048C30.7997 6.85801 30.7879 6.82554 30.7753 6.79397C30.7734 6.78946 30.7716 6.78586 30.7698 6.78135L30.6225 6.46117C30.6189 6.45306 30.6144 6.44404 30.6099 6.43592C30.5837 6.38722 30.5566 6.33942 30.5286 6.29162L30.4012 6.06795C30.3948 6.05622 30.3876 6.0454 30.3804 6.03458L30.1879 5.7595C30.1689 5.73154 30.1491 5.70448 30.1283 5.67742C30.1238 5.67201 30.1202 5.6666 30.1156 5.66119L29.8834 5.39062C29.878 5.38341 29.8717 5.37709 29.8653 5.37078C29.8247 5.32839 29.7822 5.2878 29.7397 5.24722L29.5943 5.10743C29.5654 5.08037 29.5355 5.05602 29.5048 5.03167L29.2889 4.8585C29.2771 4.84948 29.2663 4.84137 29.2536 4.83325C29.2211 4.8125 29.1886 4.78996 29.1569 4.76831C29.0566 4.70067 28.9428 4.62401 28.8154 4.55817C28.5009 4.3841 28.172 4.25062 27.835 4.15953C27.7799 4.1451 27.7257 4.13247 27.6705 4.11895L27.5955 4.10091C27.5865 4.0991 27.5775 4.0964 27.5684 4.0955L27.497 4.08197C27.4374 4.07024 27.3778 4.05942 27.3163 4.0504C27.2287 4.03777 27.1428 4.02605 27.0507 4.01883C26.6802 3.98637 26.3386 4.24792 26.2754 4.61499C26.2754 4.6186 26.2745 4.6222 26.2736 4.62581L26.2646 4.68624C26.2347 4.88826 26.3034 5.0957 26.448 5.24271C26.4507 5.24632 26.4588 5.25714 26.4724 5.28149C26.4886 5.31125 26.5121 5.36988 26.5302 5.48352C26.5311 5.48983 26.532 5.49614 26.5338 5.50246C26.5374 5.51779 26.5392 5.55296 26.5411 5.58273C26.542 5.59806 26.5429 5.61339 26.5447 5.62872C26.5456 5.67923 26.5447 5.72973 26.5447 5.78024C26.5429 5.80369 26.5411 5.82714 26.5401 5.85059C26.5383 5.88035 26.5365 5.91011 26.5338 5.92815C26.5302 5.9498 26.5266 5.97054 26.523 5.99219C26.5203 6.01293 26.5158 6.04089 26.513 6.04901C26.5094 6.05893 26.5067 6.06975 26.504 6.07967C26.4579 6.25103 26.3612 6.4251 26.2103 6.60097C26.0576 6.78496 25.8588 6.95812 25.6727 7.11685C25.5336 7.2323 25.3917 7.34594 25.2498 7.45957C24.9507 7.69768 24.6417 7.9448 24.3535 8.21897C23.8664 8.67623 23.486 9.17589 23.2249 9.7035C22.9583 10.2419 22.802 10.8552 22.7586 11.5262C22.7586 11.5325 22.7586 11.5389 22.7586 11.5452C22.7586 11.5867 22.7559 11.6281 22.7541 11.6696C22.7496 11.7697 22.7451 11.8834 22.7514 12.0024L22.7541 12.1043C22.7541 12.1134 22.7541 12.1233 22.7559 12.1323L22.7758 12.3479C22.7758 12.3569 22.7776 12.3659 22.7794 12.374L22.7957 12.4822C22.8463 12.8015 22.9339 13.1145 23.0577 13.413C23.2872 13.9659 23.6387 14.4917 24.1014 14.9742C24.3038 15.1861 24.5342 15.3945 24.789 15.5956C24.9173 15.6948 25.0375 15.7832 25.155 15.8644C25.2191 15.9086 25.2842 15.9518 25.3555 15.9969L25.4549 16.0583L25.5453 16.1106C25.5516 16.1142 25.5589 16.1169 25.5652 16.1205C25.5733 16.125 25.5814 16.1286 25.5896 16.1322C25.6167 16.1448 25.6456 16.1566 25.6817 16.1674C25.7332 16.1818 25.7875 16.189 25.8408 16.189C25.9257 16.189 26.0097 16.171 26.0829 16.1367C26.1769 16.0943 26.2591 16.0276 26.3197 15.9446C26.3712 15.8734 26.4019 15.7859 26.4064 15.6984C26.4073 15.6704 26.4109 15.6118 26.401 15.5442C26.3874 15.4468 26.3504 15.3485 26.2998 15.2718C26.2917 15.2592 26.2808 15.2475 26.2718 15.2348C26.2618 15.2204 26.2519 15.2069 26.2402 15.1942C26.2393 15.1924 26.2383 15.1906 26.2365 15.1897C26.2338 15.1861 26.2311 15.1834 26.2284 15.1798C26.2257 15.1771 26.223 15.1744 26.2203 15.1717C26.2067 15.1573 26.1905 15.1419 26.1805 15.1329L26.12 15.0734C26.0983 15.0499 26.0712 15.0094 26.0504 14.9787C25.998 14.8975 25.9501 14.801 25.9076 14.6928C25.8254 14.4845 25.7793 14.2599 25.7694 14.0254C25.7649 13.9081 25.7694 13.7963 25.7857 13.689C25.8037 13.5663 25.8281 13.4644 25.8634 13.3715C25.9384 13.1641 26.0558 12.981 26.2022 12.843C26.2076 12.8376 26.2131 12.8322 26.2185 12.8268C26.2347 12.8096 26.2627 12.7871 26.2926 12.7618C26.3052 12.751 26.3179 12.7411 26.3305 12.7303L26.3396 12.724C26.3838 12.6915 26.4254 12.6617 26.4688 12.6347C26.5465 12.5851 26.6386 12.54 26.7362 12.4931L26.9983 12.3659C27.0552 12.3379 27.1058 12.3073 27.1501 12.2811C27.169 12.2703 27.188 12.2586 27.1998 12.2523C27.3227 12.1864 27.4275 12.1125 27.5296 12.0421L27.601 11.9925C27.6073 11.988 27.6136 11.9835 27.6199 11.979C27.9109 11.7562 28.1377 11.5199 28.313 11.2566C28.3618 11.3648 28.4015 11.4784 28.4323 11.5975C28.4576 11.6904 28.4765 11.7896 28.491 11.9068C28.5036 11.9979 28.51 12.098 28.5136 12.2288C28.5145 12.3443 28.5109 12.4579 28.5018 12.5661C28.5018 12.5688 28.5018 12.5724 28.5018 12.5751C28.4964 12.6671 28.482 12.7708 28.4603 12.8926C28.4567 12.9124 28.4539 12.9323 28.4521 12.9521L28.4503 12.9864C28.4458 13.0748 28.4639 13.1632 28.5027 13.2407C28.5633 13.3625 28.6672 13.4527 28.7955 13.496C28.9247 13.5393 29.0621 13.5302 29.184 13.4698C29.2681 13.4283 29.3702 13.3733 29.4714 13.2967C29.4723 13.3147 29.4732 13.3336 29.4741 13.3517C29.4786 13.505 29.4741 13.6286 29.4614 13.7458C29.4361 13.9983 29.3783 14.2698 29.2889 14.5521L29.2852 14.5557Z" fill="#070707"/>
</g>
</svg>
