<svg width="53" height="54" viewBox="0 0 53 54" fill="none" xmlns="http://www.w3.org/2000/svg">
<path d="M21.4552 18.3092C21.4584 18.0689 21.4731 17.8579 21.5001 17.6648C21.5516 17.2803 21.6831 16.877 21.8899 16.4673C21.9487 16.35 21.9961 16.2612 22.0427 16.1789C22.0999 16.0738 22.1497 15.9964 22.2028 15.928C22.3188 15.7797 22.4627 15.6657 22.6179 15.5989C22.7683 15.5312 22.948 15.5011 23.1507 15.5092C23.3476 15.5158 23.5486 15.5492 23.7455 15.6094C23.9392 15.6673 24.1239 15.7479 24.2946 15.849C24.3804 15.9011 24.4662 15.9549 24.5275 16.0103C24.5872 16.064 24.6419 16.1284 24.6942 16.2066C24.789 16.3451 24.8674 16.5137 24.9418 16.7369C24.9835 16.8624 25.0202 16.9919 25.0521 17.1328L25.0668 17.198L25.0202 17.2461C24.8952 17.374 24.7669 17.5125 24.6158 17.6803C24.5471 17.7569 24.4793 17.8326 24.4107 17.9092C24.2742 18.0623 24.1345 18.2188 23.9947 18.3687C23.7798 18.6 23.5478 18.8216 23.3468 19.0122C22.8009 19.5336 22.269 20.0656 21.7207 20.6374L21.5091 20.8582V20.5535C21.5091 20.4916 21.5091 20.4289 21.5083 20.3645C21.505 20.0721 21.4927 19.7796 21.4805 19.4969C21.4731 19.3242 21.4658 19.154 21.4601 18.9837C21.4519 18.723 21.4503 18.5096 21.4535 18.3108L21.4552 18.3092ZM26.406 25.3347L26.4028 25.4561L26.281 25.4536C25.928 25.4455 25.5832 25.4626 25.3062 25.4764L24.5234 25.527L24.7677 25.2948C24.7898 25.2736 24.8119 25.2524 24.8339 25.2304C25.0488 25.0259 25.2654 24.7921 25.4966 24.5143C25.6559 24.3221 25.8145 24.1144 25.9812 23.8789L26.1438 23.6492L26.281 24.3107C26.3243 24.5258 26.3652 24.727 26.3889 24.929C26.4052 25.0781 26.411 25.2109 26.4077 25.3355L26.406 25.3347ZM27.4495 28.7782C27.4144 28.8108 27.3792 28.8458 27.3441 28.8825C27.1537 29.0821 27.0058 29.3004 26.8628 29.5106C26.8252 29.566 26.7901 29.6173 26.7509 29.6743C26.5858 29.9203 26.4093 30.1884 26.2394 30.4629C25.9166 30.9818 25.6429 31.4633 25.401 31.9366L25.1747 31.8445C25.2016 31.7566 25.2294 31.6702 25.2564 31.5863C25.3699 31.2531 25.4721 30.9851 25.5775 30.7399C25.8226 30.159 26.0996 29.6222 26.4011 29.1432C26.4771 29.0242 26.5597 28.8988 26.6463 28.788L26.652 28.7807C26.6634 28.7652 26.6749 28.7521 26.6863 28.7391L26.7182 28.7016L26.7337 28.6919C26.7435 28.6853 26.7533 28.6788 26.7631 28.6723L26.7876 28.6576L26.8203 28.6422C26.8358 28.6348 26.8448 28.6299 26.8546 28.6267L26.8636 28.6234C26.9519 28.5892 27.0614 28.5713 27.2085 28.5656C27.2624 28.564 27.3163 28.564 27.3702 28.5656L27.666 28.577L27.4487 28.7774L27.4495 28.7782ZM41.633 46.5994C43.9568 44.72 45.9735 42.4195 47.6273 39.7596C48.4142 38.4953 49.1251 37.1357 49.7395 35.7166C50.3295 34.3512 50.8296 32.8995 51.2259 31.4014C51.6107 29.9301 51.8877 28.419 52.0471 26.9119C52.2056 25.3787 52.2415 23.8414 52.1525 22.3441C52.0585 20.815 51.8273 19.2933 51.4661 17.822C51.1066 16.3491 50.5926 14.8958 49.9389 13.502C48.6675 10.7761 46.7603 8.26215 44.4226 6.23042C43.2819 5.23899 42.0252 4.34451 40.6867 3.5706C39.3859 2.81949 37.9862 2.17266 36.5284 1.6464C35.114 1.13725 33.6261 0.738885 32.1062 0.461905C30.6313 0.193886 29.0993 0.0407323 27.5533 0.00651717C27.3449 0.00244394 27.1374 0 26.9298 0C24.0519 0 21.2256 0.421987 18.5201 1.25619C15.5098 2.18651 12.7782 3.57956 10.4013 5.39703C7.98423 7.23406 5.8916 9.58839 4.34808 12.2042C3.58081 13.5011 2.92467 14.8917 2.39763 16.3377C1.87059 17.7821 1.47919 19.2688 1.23324 20.7564C0.732352 23.7657 0.796904 26.8271 1.42608 29.8552C2.04055 32.8303 3.17307 35.6758 4.79259 38.3145C6.39658 40.9344 8.41894 43.239 10.8033 45.1665C13.2227 47.1232 15.9143 48.6002 18.8028 49.5574C20.263 50.0429 21.7673 50.3859 23.2757 50.5757L23.4612 50.5977L23.4628 50.7044C23.4742 51.6608 23.4979 52.4543 23.5372 53.2029C23.5453 53.3545 23.6704 53.4726 23.8223 53.4734C23.9743 53.4734 24.1002 53.3553 24.1083 53.2046C24.15 52.4918 24.1778 51.7056 24.1958 50.8022L24.1982 50.6727L24.3281 50.6832C25.4999 50.7753 26.6912 50.7769 27.8572 50.6873C28.0133 50.6759 28.1285 50.5439 28.1212 50.3883C28.113 50.2352 27.988 50.1179 27.8344 50.1179C27.8319 50.1179 27.8303 50.1179 27.8278 50.1179C26.6544 50.148 25.4745 50.1016 24.32 49.981L24.2088 49.9696L24.2105 49.858L24.2333 47.344C24.235 47.0792 24.2366 46.8292 24.293 46.6092C24.2987 46.5864 24.3053 46.5644 24.3118 46.544L24.3559 46.4104L24.6035 46.5334C25.1755 46.8137 25.7409 47.0882 26.2843 47.3481C26.8228 47.6055 27.3997 47.88 27.9757 48.1456L28.9285 48.5839C28.9456 48.592 28.9677 48.601 28.9889 48.6092L29.0167 48.6197C29.0363 48.6271 29.0568 48.6328 29.078 48.6393L29.105 48.6474C29.2194 48.6768 29.3362 48.689 29.4621 48.6841C29.5683 48.6784 29.7129 48.6605 29.8616 48.5766C29.9711 48.5171 30.0634 48.4161 30.1108 48.3053C30.1623 48.1904 30.1689 48.0642 30.1337 47.9289L30.1305 47.9167C30.1019 47.8059 30.0275 47.7163 29.9196 47.665L28.4112 46.9326L25.5824 45.5746C25.5129 45.5404 25.4312 45.5021 25.3479 45.4736C25.0439 45.3669 24.7163 45.3538 24.4229 45.4353L24.3772 45.4483L24.3347 45.4271C23.9939 45.2569 23.6565 45.0866 23.3263 44.9196C22.774 44.6394 22.2175 44.3534 21.6725 44.0708L21.3726 43.9152C20.915 43.6773 20.482 43.4533 20.0603 43.195C19.7874 43.0288 19.5488 42.8659 19.329 42.6973C19.119 42.536 18.9041 42.3461 18.6721 42.1164C18.44 41.8867 18.2218 41.6472 17.9906 41.3938C17.8002 41.1853 17.6057 40.971 17.4031 40.7633C17.1416 40.4953 16.9128 40.2843 16.6832 40.0985L16.6162 40.0464C16.5721 40.0122 16.5288 39.978 16.4838 39.9446L16.2403 39.7759C16.1112 39.6953 15.9781 39.6114 15.8432 39.5421C15.7901 39.5136 15.7386 39.4867 15.6872 39.4599C15.4657 39.345 15.2639 39.2399 15.1013 39.1144C14.9052 38.958 14.7532 38.7593 14.6609 38.5401C14.5693 38.3283 14.5146 38.0717 14.4999 37.7784C14.4876 37.5243 14.504 37.2465 14.5497 36.9287C14.5881 36.6681 14.6462 36.3838 14.7271 36.0603L14.9599 35.1618C15.6038 32.7235 16.3131 30.3317 17.0689 28.054C17.2413 27.5448 17.457 26.9477 17.7504 26.3799C17.8917 26.1054 18.0462 25.8504 18.208 25.6223C18.3346 25.4414 18.4817 25.2703 18.6378 25.0895C18.6843 25.0357 18.7309 24.9811 18.775 24.929L19.986 23.5164C20.3521 23.092 20.7426 22.6513 21.2166 22.1291C22.0974 21.158 22.939 20.288 23.7888 19.4684C24.0446 19.2248 24.2562 19.0171 24.4605 18.7955C24.6059 18.6383 24.7473 18.4786 24.8838 18.3238C24.9508 18.2481 25.0178 18.1723 25.0864 18.0957C25.5334 17.5915 25.9272 17.1972 26.3971 16.9113C26.6226 16.7703 26.8808 16.6628 27.1643 16.5927L27.175 16.5895C27.3645 16.5349 27.644 16.4876 27.8956 16.5781C28.01 16.6204 28.1048 16.6766 28.18 16.7459C28.2544 16.82 28.314 16.9129 28.3606 17.0269C28.4006 17.1222 28.4276 17.2396 28.4423 17.3837C28.4554 17.5019 28.4537 17.6347 28.4382 17.778C28.4251 17.9116 28.3998 18.0428 28.3614 18.1788L28.3344 18.279L28.2993 18.3915C28.2838 18.4428 28.2633 18.499 28.2421 18.5585L28.2315 18.587C28.1359 18.846 28.0158 19.1067 27.8654 19.3837C27.6129 19.8505 27.3204 20.2863 27.0115 20.7482L26.8947 20.9234C26.6397 21.3014 26.4011 21.6908 26.1707 22.068C25.7499 22.7547 25.3528 23.4032 24.8658 23.993C24.6599 24.2423 24.4638 24.4549 24.2677 24.6439C24.1876 24.7253 24.1075 24.797 24.0217 24.8728L23.9408 24.9453C23.8248 25.0479 23.7022 25.1563 23.5854 25.2638C23.3917 25.4422 23.2013 25.6247 23.0175 25.8007L22.5231 26.2683C22.4234 26.3603 22.3123 26.463 22.2143 26.5738C22.0116 26.797 21.8237 27.056 21.6227 27.3909C21.4944 27.6051 21.3751 27.8226 21.2607 28.0328L20.2671 29.8478C20.1698 30.0238 20.0742 30.2006 19.9778 30.3765L19.9647 30.401C19.7719 30.7537 19.5733 31.1187 19.3715 31.4771C19.2155 31.7566 19.0635 32.0319 18.9262 32.3227C18.7611 32.673 18.6516 32.972 18.5822 33.2628C18.4923 33.6294 18.4784 34.0017 18.5422 34.3406L18.5675 34.4669C18.5928 34.5769 18.6525 34.6795 18.7309 34.7488C18.8968 34.8995 19.1419 34.9361 19.3429 34.8424C19.4541 34.7919 19.5309 34.7023 19.5586 34.6657L19.5799 34.6396C19.5995 34.616 19.6183 34.5932 19.6363 34.5687C19.6935 34.4946 19.7425 34.4253 19.7866 34.3577C20.1126 33.8608 20.3333 33.249 20.4607 32.4881C20.6577 31.3704 20.9935 30.2943 21.4601 29.2865L21.4641 29.2784L21.9577 28.3961C22.2216 27.9236 22.4708 27.478 22.8067 27.1098C22.8835 27.0251 22.9676 26.9477 23.0657 26.8581L23.7226 26.2414L23.7578 26.2349C23.9081 26.2064 24.0675 26.1958 24.2366 26.1852C24.2987 26.1811 24.36 26.177 24.418 26.173L25.343 26.1086C25.9534 26.0752 26.5466 26.0557 27.112 26.1795C27.4348 26.2536 27.6816 26.3457 27.8899 26.4695C27.9104 26.4809 27.9242 26.4891 27.939 26.4964L27.9463 26.5005C27.9569 26.5062 27.9676 26.5119 27.9774 26.5176L27.9855 26.5225L28.0623 26.5754C28.0885 26.5941 28.1138 26.6112 28.1383 26.6284C28.1743 26.6528 28.2062 26.6748 28.2307 26.6943C28.265 26.7245 28.2952 26.7506 28.3263 26.7766C28.4063 26.8451 28.4815 26.9086 28.5403 26.9778L28.5477 26.986C28.5673 27.0072 28.5869 27.0275 28.6065 27.0487C28.6384 27.0821 28.6654 27.1106 28.6915 27.14L28.8623 27.3583C28.8942 27.3982 28.9236 27.4365 28.9448 27.4707C28.9783 27.5285 29.0012 27.5766 29.0175 27.6255C29.0747 27.7868 29.0707 27.9676 29.0069 28.1216L28.9644 28.2251L28.8574 28.1917C28.8165 28.1786 28.7757 28.1672 28.7348 28.1566C28.7119 28.1501 28.6891 28.1436 28.6621 28.1363C28.3663 28.0532 28.046 27.9693 27.7134 27.9212C27.5271 27.8935 27.3563 27.8805 27.1897 27.8837C27.0483 27.887 26.835 27.8992 26.6291 27.9733C26.5883 27.9872 26.5548 28.0019 26.5253 28.0157L26.4976 28.0279C26.4461 28.0491 26.4077 28.0744 26.3791 28.0923C26.3685 28.0996 26.3611 28.1037 26.3546 28.1078L26.3186 28.1297C26.3055 28.1379 26.2933 28.1469 26.2818 28.1574L26.2565 28.1794L26.1691 28.0939L26.2483 28.1876C26.2312 28.2031 26.2067 28.2251 26.1838 28.2519L26.1699 28.2682C26.147 28.2935 26.1217 28.3212 26.0964 28.3546C25.9828 28.4947 25.8864 28.6373 25.8047 28.7595C25.4729 29.2662 25.1673 29.8332 24.8952 30.4442C24.7547 30.7545 24.6378 31.0731 24.5414 31.3435C24.4679 31.5594 24.4009 31.7769 24.3363 31.9879C24.3102 32.0718 24.2848 32.1549 24.2587 32.238C24.0634 32.8661 23.8738 33.4926 23.7137 34.0221L23.6614 34.2005C23.5037 34.7325 23.3411 35.2823 23.2201 35.8493C23.1817 36.0392 23.1572 36.1939 23.1409 36.3487C23.1302 36.4628 23.1564 36.5809 23.2152 36.6795C23.2724 36.7764 23.3566 36.8538 23.4595 36.9035C23.5617 36.9524 23.6744 36.9703 23.7839 36.9548C23.8959 36.9393 24.0037 36.8888 24.0887 36.8114C24.2244 36.6876 24.3363 36.5345 24.4409 36.3292C24.5103 36.1915 24.57 36.0408 24.6362 35.8404C24.7972 35.3182 24.9924 34.7015 25.2212 34.0995C25.4402 33.5178 25.6829 32.9525 25.9419 32.4197C26.1911 31.9056 26.4788 31.3818 26.822 30.8181C26.9837 30.5509 27.1529 30.291 27.3106 30.0491C27.3482 29.9945 27.3833 29.9407 27.4193 29.8869C27.5525 29.6865 27.6783 29.4975 27.8286 29.3371C27.921 29.2377 28.0141 29.1619 28.1056 29.1114C28.1996 29.0601 28.2968 29.034 28.3949 29.0332C28.4349 29.0332 28.4693 29.0332 28.5044 29.0332H28.5167C28.6368 29.0356 28.7855 29.0381 28.9358 28.9998C28.9489 28.9965 28.9612 28.9933 28.9734 28.99L29.0224 28.9754L29.0674 29.0006C29.1254 29.0332 29.1826 29.0682 29.2373 29.1057C29.4555 29.2499 29.6614 29.4389 29.8485 29.6654C29.8771 29.6988 29.9041 29.7346 29.9319 29.7729L29.976 29.8324C29.9883 29.8511 30.0005 29.8698 30.0136 29.8886C30.0373 29.9236 30.0618 29.9603 30.079 29.9928C30.0814 29.9969 30.0839 30.0018 30.0871 30.0067C30.1476 30.1061 30.2015 30.2218 30.2506 30.3594C30.3266 30.5998 30.3723 30.8759 30.387 31.183C30.3993 31.456 30.3854 31.7492 30.3478 32.0563C30.3225 32.2706 30.2833 32.5077 30.2293 32.7806L30.2203 32.8237L30.1868 32.8514C30.012 32.9948 29.8502 33.1765 29.6933 33.4078C29.3419 33.9537 29.0314 34.5484 28.7659 35.1805C28.2486 36.4123 27.9316 37.7084 27.8229 39.0338C27.8082 39.1951 27.8875 39.3458 28.0256 39.4224C28.2176 39.5291 28.4619 39.459 28.5698 39.266C29.1851 38.1654 29.7072 37.0045 30.1223 35.8151C30.3282 35.2221 30.5096 34.6135 30.6616 34.0066C30.6877 33.9056 30.7114 33.8046 30.7343 33.7036C30.7466 33.6514 30.7588 33.5985 30.7711 33.5463L30.8446 33.2066L30.9043 33.1822C30.9843 33.1496 31.0767 33.1243 31.1788 33.1072C31.3079 33.0852 31.4452 33.0804 31.5857 33.0918C31.8407 33.1097 32.1193 33.1814 32.4126 33.3052C32.6668 33.4127 32.9217 33.5618 33.1709 33.75C33.5264 34.0205 33.9938 34.4726 34.2038 35.0893C34.2912 35.341 34.3222 35.6098 34.2936 35.8673C34.2691 36.1222 34.167 36.3854 34.0575 36.6648L34.0518 36.6787C34.033 36.7275 34.0134 36.7756 33.9938 36.8237C33.8892 37.0843 33.7813 37.354 33.7176 37.6595C33.6269 38.0562 33.662 38.4912 33.814 38.8554C33.9766 39.257 34.2446 39.5739 34.4317 39.7776C34.587 39.9454 34.748 40.1002 34.9048 40.2501C34.9825 40.3242 35.0593 40.3983 35.1377 40.4749C35.3722 40.7022 35.5945 40.9327 35.7971 41.1576C36.0112 41.393 36.209 41.6382 36.3846 41.8867C36.4574 41.9861 36.5252 42.092 36.5971 42.2036L36.6772 42.3347C36.7442 42.4496 36.8046 42.5539 36.8569 42.6647C37.0048 42.9669 37.1053 43.2398 37.1633 43.4981C37.165 43.5038 37.1666 43.5103 37.1682 43.5168C37.1805 43.5575 37.1887 43.6056 37.1968 43.6569L37.2271 43.8337C37.2295 43.8475 37.2303 43.8614 37.2312 43.8752C37.2328 43.8981 37.2336 43.9119 37.2352 43.9266C37.2377 43.9583 37.2402 43.986 37.2426 44.0145C37.2467 44.0602 37.2508 44.1042 37.2508 44.1416C37.2508 44.1734 37.2508 44.2019 37.2508 44.2296V44.2386C37.2508 44.2809 37.2508 44.3233 37.2491 44.3705C37.2385 44.6426 37.1936 44.9318 37.1135 45.252C37.0056 45.6789 36.8537 46.0895 36.6927 46.5245C36.6273 46.7021 36.5619 46.8764 36.5023 47.0483C36.2662 47.6943 36.1068 48.3558 36.0276 49.0173C35.9851 49.379 35.9597 49.7057 35.9491 50.0177C35.9393 50.3395 35.9426 50.6759 35.9581 51.0164C35.9932 51.6836 36.0635 52.3443 36.1673 52.9789C36.191 53.1231 36.3225 53.229 36.4688 53.2176C36.6175 53.207 36.7319 53.0881 36.7352 52.9398C36.7442 52.5366 36.7433 52.1309 36.7433 51.739C36.7425 50.8315 36.7409 49.9761 36.843 49.1183C36.8806 48.8177 36.9337 48.5106 37.0007 48.2043C37.0718 47.8849 37.1682 47.5729 37.2532 47.309C37.2998 47.1656 37.348 47.0222 37.3962 46.8788C37.5539 46.4104 37.7173 45.9257 37.8277 45.4214C37.9086 45.0491 37.9494 44.7127 37.9519 44.3917C37.9568 44.0683 37.9135 43.727 37.8203 43.3465C37.7468 43.0443 37.6291 42.7372 37.4493 42.3812C37.3856 42.2484 37.3137 42.1262 37.2451 42.0081L37.1527 41.8574C37.0767 41.7401 36.9991 41.6195 36.9158 41.5079C36.5333 40.9727 36.1011 40.4822 35.6541 39.9845C35.5961 39.9201 35.5381 39.8558 35.4801 39.7914L35.467 39.7768C35.3101 39.6049 35.1622 39.4419 35.0258 39.2725C34.8101 39.0037 34.6744 38.7788 34.5976 38.5629C34.5551 38.4448 34.5322 38.3283 34.5282 38.2159C34.5208 38.0986 34.5322 37.9788 34.5617 37.8412C34.6123 37.6 34.7096 37.3524 34.8125 37.0909L34.8501 36.9947C34.9228 36.809 34.9767 36.6526 35.0201 36.5043C35.0781 36.3104 35.114 36.1239 35.1271 35.9495C35.1606 35.5789 35.1026 35.187 34.9588 34.8147C34.8305 34.4848 34.6385 34.1695 34.3876 33.8795C34.1621 33.618 33.8957 33.3793 33.595 33.1692C32.947 32.7252 32.286 32.4759 31.629 32.4295C31.4648 32.418 31.3014 32.4229 31.1437 32.4457L30.9835 32.4686L31.0056 32.3081C31.0138 32.2494 31.0203 32.1924 31.0268 32.1354C31.1151 31.3492 31.0718 30.7187 30.8895 30.1525L30.8863 30.1436C30.8209 29.9619 30.7482 29.8071 30.664 29.6686C30.6305 29.6091 30.597 29.5586 30.5668 29.5146C30.5537 29.4951 30.5398 29.4755 30.5276 29.456C30.5235 29.4495 30.5186 29.443 30.5137 29.4364C30.4998 29.4185 30.4859 29.3998 30.472 29.381C30.4385 29.3362 30.4017 29.2874 30.3609 29.2401C30.1419 28.9786 29.8959 28.7538 29.6271 28.5705L29.5413 28.5118L29.5846 28.4181C29.7292 28.1078 29.744 27.742 29.6271 27.4129C29.5961 27.3232 29.5544 27.2361 29.5005 27.144C29.4555 27.0707 29.4089 27.0129 29.3689 26.9615L29.1932 26.7383C29.1932 26.7383 29.1867 26.7302 29.1826 26.7261C29.1466 26.6854 29.1091 26.6463 29.0715 26.6064C29.0527 26.5868 29.0347 26.5681 29.0175 26.5493C28.5518 26.0483 27.9251 25.6972 27.2518 25.5595L27.139 25.5367L27.1235 25.4577C27.0883 25.2826 27.0557 25.1082 27.0238 24.9388L26.8653 24.0492C26.8236 23.8048 26.7819 23.5425 26.7623 23.2802C26.7468 23.0643 26.746 22.872 26.7623 22.692L26.7648 22.6627L26.795 22.6146C27.0475 22.2048 27.309 21.7812 27.5737 21.3771C27.9447 20.8159 28.2748 20.3051 28.5551 19.7405C28.7152 19.4179 28.8378 19.1189 28.9309 18.8257L28.9407 18.7947C28.962 18.7271 28.9832 18.6579 29.0004 18.5894L29.0347 18.4607L29.0592 18.3499C29.1001 18.1764 29.1246 18.0029 29.1344 17.8334C29.1466 17.6477 29.1401 17.4685 29.1156 17.299C29.0862 17.0897 29.0372 16.9137 28.9661 16.7622C28.8811 16.5748 28.7667 16.4127 28.6261 16.2799C28.4791 16.1479 28.3042 16.0477 28.1024 15.9785C27.7755 15.8718 27.3956 15.875 27.005 15.9899C26.661 16.0803 26.348 16.2123 26.0702 16.3817C25.9852 16.4322 25.8978 16.4909 25.794 16.5658L25.6519 16.6677L25.6045 16.5007C25.5317 16.2457 25.4222 16.0094 25.2792 15.8001C25.1918 15.6746 25.0938 15.5646 24.9875 15.475C24.8772 15.383 24.7612 15.3178 24.6591 15.2608L24.6395 15.2494C24.4139 15.128 24.1712 15.0335 23.9204 14.9708C23.6679 14.908 23.4146 14.8746 23.1686 14.8722C22.8745 14.8657 22.6048 14.9146 22.363 15.0172C22.1121 15.1223 21.8825 15.2991 21.6987 15.5296C21.6235 15.6233 21.5508 15.7333 21.4821 15.8563C21.4323 15.9426 21.3685 16.0542 21.3097 16.1667C21.0564 16.6375 20.8922 17.1068 20.8211 17.5613C20.7394 18.0509 20.7426 18.5397 20.7541 18.9984C20.7614 19.3397 20.777 19.6819 20.7925 20.0134C20.8178 20.5568 20.8382 21.0464 20.8309 21.5409V21.5873L20.7353 21.6908C20.0636 22.4223 19.4009 23.1816 18.7611 23.9164C18.5944 24.1078 18.4286 24.2977 18.2602 24.4899C18.2153 24.542 18.1695 24.5942 18.123 24.6463C17.962 24.8296 17.7961 25.0186 17.6482 25.2255C17.466 25.4764 17.2936 25.7567 17.1334 26.0597C16.8148 26.665 16.5811 27.2915 16.3956 27.8251C15.603 30.1476 14.8651 32.5476 14.2033 34.9598L13.9598 35.8616C13.8666 36.2167 13.8021 36.5182 13.7571 36.809C13.6999 37.1772 13.6779 37.5055 13.6901 37.8126C13.7048 38.1996 13.7792 38.5523 13.9099 38.8619L13.9581 38.9743C13.9622 38.9833 13.9671 38.9931 13.972 39.002L14.0333 39.1104C14.0431 39.1267 14.048 39.1364 14.0529 39.1454C14.0685 39.1731 14.0873 39.2081 14.115 39.2456L14.1837 39.3385C14.236 39.4151 14.2923 39.4737 14.3414 39.525L14.37 39.5552C14.4402 39.6334 14.5146 39.6953 14.5914 39.7572C14.8177 39.934 15.067 40.0651 15.2868 40.1808C15.344 40.211 15.3971 40.2387 15.4535 40.2696C15.8857 40.4953 16.3008 40.8268 16.7984 41.3441C16.9872 41.5396 17.1661 41.7392 17.3557 41.9502C17.5837 42.2036 17.819 42.4651 18.0682 42.716C18.3248 42.9734 18.5642 43.1877 18.802 43.3726C19.0463 43.5624 19.3094 43.7441 19.6069 43.9282C20.1282 44.25 20.6707 44.5318 21.1953 44.8039L21.268 44.8414C21.8237 45.1298 22.3834 45.4166 22.93 45.6943C23.1327 45.797 23.337 45.9005 23.5437 46.0039L23.6458 46.0552L23.6017 46.1603C23.569 46.2393 23.5404 46.3257 23.5184 46.4178C23.444 46.7298 23.4448 47.0377 23.4456 47.3098L23.4546 49.8759L23.3141 49.8556C21.8654 49.6462 20.4272 49.3073 19.0398 48.8478C16.2371 47.9183 13.6256 46.4837 11.2772 44.5832C8.97457 42.7217 7.00778 40.4806 5.43157 37.9242C3.85291 35.3614 2.74654 32.5965 2.14351 29.7061C1.5274 26.7717 1.4604 23.7999 1.94331 20.8729C2.17946 19.4285 2.55778 17.9841 3.06766 16.5805C3.57836 15.1744 4.21325 13.8229 4.95683 12.5619C6.45133 10.0218 8.48022 7.73426 10.8229 5.94774C13.1525 4.16284 15.8105 2.80646 18.7236 1.91686C24.4605 0.162115 30.6926 0.314454 36.2735 2.34455C37.683 2.85941 39.0386 3.49239 40.3027 4.22802C41.5962 4.98238 42.8096 5.85242 43.9094 6.81452C46.15 8.77619 47.9844 11.2055 49.2158 13.8384C49.8466 15.185 50.3426 16.5886 50.689 18.011C51.0387 19.4375 51.2618 20.912 51.3525 22.393C51.4424 23.8634 51.4138 25.3575 51.2667 26.832C51.1172 28.3 50.8541 29.7729 50.4839 31.2099C50.1121 32.6396 49.6333 34.0588 49.0597 35.4282C48.4722 36.8196 47.7907 38.1548 47.0333 39.3955C46.6476 40.0269 46.2317 40.6517 45.7986 41.2537C45.3467 41.8826 44.8851 42.474 44.4275 43.0125C43.4576 44.153 42.3945 45.2121 41.2677 46.1603C41.1484 46.2605 41.1321 46.4397 41.2318 46.5603C41.3314 46.6801 41.5112 46.698 41.6321 46.6002L41.633 46.5994Z" fill="#070707"/>
<path d="M27.5303 10.3557L27.4233 10.363L27.402 10.2579C27.393 10.2123 27.3824 10.1667 27.3702 10.1219C27.2958 9.83839 27.1773 9.58259 27.0172 9.36019C26.8595 9.13453 26.6535 8.93901 26.406 8.77771L26.3994 8.77364C26.3202 8.72232 26.2221 8.70603 26.1306 8.72802C25.9516 8.77201 25.8372 8.95368 25.8757 9.13372C25.8797 9.15897 25.8822 9.194 25.8789 9.23636C25.8765 9.27628 25.8691 9.32271 25.8577 9.37241C25.8364 9.47342 25.7882 9.572 25.7531 9.63798L25.7482 9.64694C25.7376 9.66324 25.7269 9.68034 25.7171 9.69664C25.6975 9.72841 25.6828 9.75285 25.6681 9.77077L25.6044 9.85142C25.5839 9.87749 25.5758 9.88563 25.5668 9.8946C25.5496 9.9117 25.5325 9.93044 25.5145 9.94918C25.4892 9.97606 25.4646 10.0013 25.4524 10.0127L25.3086 10.1333L25.2432 10.1797C25.1705 10.2319 25.1018 10.2816 25.0324 10.3174C25.0054 10.3321 24.9834 10.3451 24.9621 10.3573L24.9523 10.363C24.9262 10.3785 24.9 10.3932 24.8747 10.4054L24.6941 10.4917C24.6631 10.5072 24.6296 10.5227 24.5969 10.5382C24.5111 10.5781 24.4179 10.6213 24.3289 10.6758C24.2684 10.7109 24.2136 10.7492 24.1654 10.7826L24.1475 10.7948C24.1417 10.7989 24.136 10.8029 24.1303 10.8078L24.0927 10.8371C24.0543 10.8665 24.0077 10.9031 23.9636 10.9463C23.7373 11.154 23.56 11.4098 23.4472 11.6884C23.3352 11.9654 23.2772 12.2579 23.274 12.5569L23.2633 12.8615L23.0615 12.6448C22.9422 12.5169 22.8393 12.3915 22.7477 12.2628C22.6113 12.0697 22.4969 11.8693 22.4095 11.6673C22.3171 11.4538 22.2526 11.2371 22.2174 11.0229L22.2044 10.9439L22.1872 10.7769L22.1831 10.6807C22.1782 10.6107 22.1807 10.5349 22.1831 10.4543C22.1848 10.4143 22.1856 10.3761 22.1864 10.3369C22.2125 9.84735 22.3245 9.40255 22.519 9.00989C22.7118 8.61886 22.997 8.24819 23.3679 7.90849C23.6229 7.6698 23.8982 7.45554 24.1899 7.22744C24.3027 7.13946 24.4163 7.05066 24.5282 6.96105C24.7701 6.76798 24.9621 6.59283 25.1321 6.41117C25.3519 6.17655 25.5129 5.9183 25.6117 5.64295C25.6387 5.57452 25.6534 5.51343 25.6657 5.45966C25.6706 5.44011 25.6738 5.42544 25.6771 5.41159C25.6902 5.35457 25.6975 5.30569 25.7049 5.25763V5.24948C25.709 5.23074 25.7122 5.21201 25.7155 5.19327L25.718 5.17861C25.7269 5.10692 25.7335 5.03441 25.7384 4.96354L25.74 4.9057C25.74 4.87882 25.7416 4.84949 25.7416 4.81935V4.65397L25.9002 4.70285C26.0562 4.75092 26.2131 4.81446 26.3651 4.89104L26.3757 4.89592C26.4452 4.92769 26.5146 4.97006 26.589 5.01568C26.6176 5.03278 26.6446 5.04989 26.6715 5.06618L26.6813 5.0727L26.8178 5.1729C26.83 5.18186 26.8407 5.19001 26.8513 5.19734L26.8815 5.21934L26.9526 5.28207C26.9706 5.29836 26.9877 5.31384 27.0049 5.3285L27.0114 5.3342C27.036 5.3562 27.0613 5.37738 27.085 5.40019L27.0915 5.40671L27.2819 5.612C27.2884 5.62014 27.295 5.62829 27.3015 5.63725L27.4535 5.83684L27.581 6.0348C27.6014 6.06739 27.6194 6.09671 27.6374 6.12604L27.6414 6.13337L27.7681 6.38102C27.7746 6.39569 27.7787 6.40546 27.782 6.41442L27.7852 6.42176C27.7901 6.43479 27.7951 6.44701 27.7983 6.45516L27.8694 6.63112C27.8825 6.66859 27.8915 6.69874 27.9013 6.72969L27.9364 6.84456C27.9413 6.85922 27.9454 6.87389 27.9495 6.88773L27.9699 6.97735C27.9756 7.00423 27.9814 7.02948 27.9871 7.05392C27.9961 7.0914 28.0034 7.12643 28.0067 7.15168L28.0083 7.1639C28.0492 7.39037 28.0606 7.63721 28.0443 7.8979C28.0386 8.00054 28.0238 8.11541 27.9985 8.25716C27.9683 8.40135 27.9397 8.50807 27.907 8.59523L27.9037 8.60338C27.867 8.70277 27.8776 8.81112 27.9331 8.90236C28.0304 9.06203 28.242 9.11416 28.403 9.01967C28.4128 9.01396 28.4218 9.00744 28.4308 9.00093C28.4896 8.95694 28.5403 8.91132 28.595 8.85185C28.6391 8.80623 28.6808 8.75653 28.7249 8.69788C28.7527 8.66041 28.7805 8.62049 28.8066 8.57894L28.9227 8.40053L29.0264 8.6042C29.1613 8.86977 29.2748 9.14919 29.3631 9.43432C29.4546 9.73085 29.5159 10.0241 29.5453 10.306C29.5764 10.5887 29.5666 10.8787 29.5175 11.1679C29.4693 11.4473 29.3803 11.7186 29.252 11.9744L29.1441 12.1691C29.1188 12.2098 29.0951 12.2432 29.0722 12.2766L28.966 12.2147L29.0665 12.284C29.0501 12.3076 29.0346 12.3304 29.0191 12.354L29.0142 12.3613C28.9872 12.4037 28.9505 12.4477 28.9112 12.4949L28.8189 12.6057L28.7519 12.6782C28.6996 12.732 28.6457 12.7841 28.5901 12.8347L28.3205 13.0799L28.3875 12.7214C28.4103 12.5992 28.4242 12.4892 28.4316 12.3842C28.4455 12.1952 28.443 12.0298 28.4259 11.8774C28.4193 11.8033 28.4079 11.7341 28.3973 11.6738L28.3899 11.6306C28.3891 11.6249 28.3883 11.6192 28.3866 11.6143C28.3711 11.5443 28.3515 11.4571 28.3229 11.3699C28.2257 11.0449 28.0516 10.7369 27.8204 10.4763L27.8089 10.464C27.7395 10.3875 27.6357 10.3459 27.5319 10.3516L27.5303 10.3557ZM29.1931 13.1043C29.4701 12.7956 29.6589 12.5292 29.7929 12.2603C29.9506 11.9483 30.0601 11.6176 30.1189 11.2754C30.2276 10.649 30.1769 9.96954 29.9686 9.25673C29.7741 8.60664 29.4922 7.9981 29.131 7.44658C29.1261 7.43925 29.1204 7.43192 29.1147 7.42459L29.0983 7.40585C29.042 7.34231 28.9643 7.30158 28.8794 7.2918L28.7813 7.28039L28.7715 7.18182C28.7674 7.14109 28.7625 7.10036 28.7576 7.06044C28.7519 7.00016 28.7421 6.95046 28.7331 6.9024C28.7282 6.87633 28.7241 6.85678 28.7217 6.83723L28.702 6.72806C28.7012 6.72318 28.7004 6.71829 28.6988 6.71421C28.6931 6.68896 28.6865 6.66371 28.6792 6.63927L28.6506 6.53336C28.6375 6.4853 28.6252 6.43805 28.6114 6.39161C28.6097 6.38673 28.6081 6.38184 28.6064 6.37695L28.5231 6.14396C28.5133 6.11626 28.5035 6.08938 28.492 6.06331L28.4888 6.05598L28.3556 5.76678C28.3531 5.76189 28.3507 5.75619 28.3474 5.7513C28.3245 5.70813 28.3 5.66576 28.2755 5.6234L28.1603 5.42137C28.1562 5.41404 28.1521 5.40752 28.1472 5.401L27.9732 5.15254C27.9568 5.12891 27.9405 5.1061 27.9233 5.08329L27.9152 5.07352L27.706 4.82912C27.7019 4.82505 27.6986 4.82098 27.6945 4.8169C27.6586 4.78024 27.6218 4.7444 27.5842 4.70937L27.4527 4.5831C27.4306 4.56192 27.4061 4.54237 27.3808 4.52282L27.1847 4.3664C27.1781 4.3607 27.17 4.35581 27.1626 4.35011C27.134 4.33137 27.1062 4.31264 27.0784 4.2939C26.9853 4.23117 26.8856 4.16437 26.7777 4.10897C26.4983 3.95501 26.209 3.83688 25.9149 3.75786C25.8675 3.74564 25.8185 3.73342 25.7694 3.72202L25.7016 3.70572C25.6951 3.7041 25.6902 3.70328 25.6844 3.70165L25.6183 3.68943C25.566 3.67966 25.5137 3.66907 25.4597 3.66173C25.3829 3.65033 25.3069 3.64055 25.2269 3.63404C25.2113 3.63241 25.1958 3.63159 25.1803 3.63159C24.9254 3.63159 24.6998 3.81733 24.6557 4.0715L24.6467 4.13341C24.6255 4.27842 24.6745 4.4275 24.7783 4.53259L24.7881 4.54318C24.7913 4.54807 24.802 4.56192 24.8199 4.59287C24.8494 4.64583 24.8714 4.72077 24.8869 4.8169L24.8894 4.82912C24.8935 4.8503 24.8959 4.878 24.8984 4.91873L24.9017 4.95947C24.9025 5.01323 24.9025 5.0613 24.9017 5.10855C24.9 5.13543 24.8984 5.1558 24.8976 5.17616C24.8959 5.20712 24.8935 5.23889 24.891 5.25681C24.8869 5.27881 24.8837 5.29754 24.8812 5.31547C24.8771 5.34154 24.8714 5.37249 24.869 5.38145C24.8649 5.39367 24.8632 5.40019 24.8608 5.40671C24.815 5.57941 24.717 5.75456 24.5699 5.92564C24.4261 6.09834 24.2439 6.2572 24.0698 6.40546C23.944 6.51055 23.8157 6.61238 23.6874 6.71421C23.4153 6.93091 23.1383 7.15168 22.8817 7.39607C22.4511 7.79932 22.1161 8.23923 21.8865 8.70277C21.6528 9.17445 21.5155 9.71293 21.4771 10.3027V10.315C21.4755 10.3516 21.4739 10.3883 21.473 10.4241C21.469 10.5178 21.4649 10.6172 21.4706 10.7182L21.4739 10.8135C21.4739 10.8192 21.4739 10.8257 21.4747 10.8314L21.4927 11.0261C21.4927 11.0318 21.4935 11.0375 21.4951 11.0432L21.5098 11.1402C21.5539 11.4188 21.6308 11.6925 21.7386 11.9532C21.9396 12.4387 22.2493 12.8998 22.6579 13.3259C22.8368 13.5133 23.0419 13.6982 23.2674 13.8758C23.381 13.9638 23.488 14.042 23.5926 14.1145C23.649 14.1536 23.707 14.1919 23.77 14.231L23.9514 14.3377C23.9571 14.3401 23.9612 14.3426 23.9652 14.345C23.9898 14.3564 24.011 14.3646 24.0347 14.3711C24.1197 14.3947 24.2284 14.3882 24.3092 14.3499C24.3763 14.3198 24.4343 14.2733 24.4768 14.2147C24.5094 14.1699 24.5291 14.1145 24.5315 14.0583C24.5323 14.0346 24.5348 13.9923 24.5274 13.9434C24.5176 13.8733 24.4915 13.8016 24.4547 13.7471C24.4514 13.7422 24.4482 13.7389 24.4457 13.7348L24.4334 13.7194C24.4236 13.7055 24.4171 13.6974 24.4098 13.6884L24.4008 13.6778C24.3844 13.6615 24.3722 13.6493 24.3648 13.6428L24.3076 13.5858C24.2798 13.5556 24.2537 13.5181 24.2292 13.4815C24.1769 13.4 24.1295 13.3055 24.0886 13.1996C24.0102 12.9984 23.9652 12.7825 23.9554 12.5577C23.9505 12.4444 23.9563 12.3345 23.9718 12.231C23.9889 12.1096 24.0135 12.0102 24.0486 11.919C24.1221 11.7153 24.239 11.5345 24.3852 11.396L24.3959 11.3854C24.4155 11.365 24.4433 11.3422 24.4727 11.3178L24.5209 11.2787C24.5634 11.2477 24.6026 11.2192 24.6459 11.1923C24.7211 11.1451 24.8069 11.1027 24.8976 11.0587L25.1345 10.943C25.1811 10.9202 25.2244 10.8942 25.2628 10.8714C25.2849 10.8583 25.2996 10.8494 25.3102 10.8437C25.4173 10.7858 25.5104 10.7215 25.5995 10.6595L25.6771 10.6058C25.9296 10.4135 26.1257 10.2099 26.276 9.98258L26.3986 9.79847L26.4901 9.99968C26.5375 10.104 26.5759 10.2148 26.6053 10.328C26.6298 10.4168 26.647 10.5113 26.6609 10.6229C26.6723 10.7076 26.6789 10.8013 26.6821 10.9251C26.683 11.0343 26.6797 11.141 26.6707 11.2428C26.665 11.3349 26.6519 11.4326 26.6315 11.5491C26.6282 11.5638 26.6266 11.5768 26.6258 11.5891L26.6241 11.62C26.6209 11.6779 26.6331 11.7357 26.6584 11.787C26.6985 11.8677 26.7679 11.928 26.8529 11.9565C26.9379 11.985 27.0294 11.9793 27.1103 11.9394C27.1773 11.906 27.2647 11.8603 27.3514 11.7952L27.5344 11.6567L27.5475 11.8856C27.5483 11.9035 27.5491 11.9206 27.5499 11.9385C27.554 12.0852 27.5499 12.2009 27.5377 12.3125C27.514 12.5479 27.46 12.8004 27.3775 13.0636C27.3007 13.308 27.2043 13.5556 27.0899 13.8008L27.0833 13.8139C27.0245 13.9255 27.0261 14.0591 27.0891 14.1699C27.1904 14.3475 27.4175 14.4094 27.5957 14.3092C28.2771 13.9238 28.7846 13.5418 29.1939 13.1067L29.1931 13.1043Z" fill="#070707"/>
</svg>
