<svg width="14" height="15" viewBox="0 0 14 15" fill="none" xmlns="http://www.w3.org/2000/svg">
<path d="M6.99992 0.833313C3.31992 0.833313 0.333252 3.81998 0.333252 7.49998C0.333252 11.18 3.31992 14.1666 6.99992 14.1666C10.6799 14.1666 13.6666 11.18 13.6666 7.49998C13.6666 3.81998 10.6799 0.833313 6.99992 0.833313ZM10.0933 5.36665C9.99325 6.41998 9.55992 8.97998 9.33992 10.16C9.24658 10.66 9.05992 10.8266 8.88658 10.8466C8.49992 10.88 8.20658 10.5933 7.83325 10.3466C7.24658 9.95998 6.91325 9.71998 6.34659 9.34665C5.68659 8.91331 6.11325 8.67331 6.49325 8.28665C6.59325 8.18665 8.29992 6.63331 8.33325 6.49331C8.33788 6.47211 8.33727 6.45009 8.33146 6.42918C8.32565 6.40827 8.31482 6.38909 8.29992 6.37331C8.25992 6.33998 8.20658 6.35331 8.15992 6.35998C8.09992 6.37331 7.16658 6.99331 5.34659 8.21998C5.07992 8.39998 4.83992 8.49331 4.62658 8.48665C4.38658 8.47998 3.93325 8.35331 3.59325 8.23998C3.17325 8.10665 2.84659 8.03331 2.87325 7.79998C2.88658 7.67998 3.05325 7.55998 3.36659 7.43331C5.31325 6.58665 6.60659 6.02665 7.25325 5.75998C9.10658 4.98665 9.48659 4.85331 9.73992 4.85331C9.79325 4.85331 9.91992 4.86665 9.99992 4.93331C10.0666 4.98665 10.0866 5.05998 10.0933 5.11331C10.0866 5.15331 10.0999 5.27331 10.0933 5.36665Z" fill="#605851"/>
</svg>
